<svg width="192" height="32" viewBox="0 0 192 32" fill="none" xmlns="http://www.w3.org/2000/svg">
<path d="M12.4482 13.032V16.936H18.0162C17.3122 18.664 15.2962 19.816 12.9282 19.816C9.53619 19.816 7.32819 17.384 7.32819 13.832C7.32819 10.248 9.56819 7.81602 12.9282 7.81602C15.2002 7.81602 17.2162 9.03202 18.0162 10.92H24.5122C23.5522 5.73602 18.7522 2.05602 12.8642 2.05602C5.98419 2.05602 0.992188 7.01602 0.992188 13.832C0.992188 20.648 6.08019 25.576 12.9282 25.576C19.9362 25.576 24.7362 20.36 24.7362 13.032H12.4482Z" fill="white"/>
<path d="M37.1139 7.65602C35.0659 7.65602 33.5939 8.23202 32.3779 9.64002L31.4499 7.72002H27.4499V25H33.4019V16.232C33.4019 14.024 34.2979 13.096 36.3779 13.096H38.7139V7.65602H37.1139Z" fill="white"/>
<path d="M40.9819 5.57602H46.8699V0.52002H40.9819V5.57602ZM40.9499 25H46.9019V7.72002H40.9499V25Z" fill="white"/>
<path d="M61.0694 7.24002C58.8294 7.24002 56.9094 8.07202 55.6294 9.51202L54.8294 7.72002H50.6374V25H56.5894V15.784C56.5894 13.576 57.6454 12.296 59.5014 12.296C61.0054 12.296 61.7734 13.288 61.7734 15.304V25H67.7254V14.472C67.7254 10.088 65.0694 7.24002 61.0694 7.24002Z" fill="white"/>
<path d="M85.1184 7.72002L84.3504 9.19202C82.8784 7.94402 80.9904 7.17602 78.9104 7.17602C73.9504 7.17602 70.2704 10.952 70.2704 15.88C70.2704 20.872 73.9504 24.552 78.9104 24.552C80.5744 24.552 82.1104 24.072 83.4224 23.272V23.784C83.4224 25.832 81.8224 27.112 79.8064 27.112C78.3664 27.112 76.8944 26.472 76.4784 25.32H70.7504C71.5504 29.416 74.9744 31.88 79.8704 31.88C85.5664 31.88 89.1184 28.52 89.1184 23.112V7.75202L85.1184 7.72002ZM79.9024 19.656C77.7264 19.656 76.1904 18.088 76.1904 15.88C76.1904 13.704 77.7584 12.104 79.9024 12.104C82.0464 12.104 83.5824 13.704 83.5824 15.88C83.5824 18.088 82.0464 19.656 79.9024 19.656Z" fill="white"/>
<path d="M101.559 25.576C107.191 25.576 111.255 21.704 111.255 16.36C111.255 11.016 107.191 7.17602 101.559 7.17602C95.9274 7.17602 91.8954 11.016 91.8954 16.36C91.8954 21.704 95.9274 25.576 101.559 25.576ZM101.559 20.232C99.4154 20.232 97.8474 18.664 97.8474 16.392C97.8474 14.088 99.4154 12.52 101.559 12.52C103.735 12.52 105.303 14.12 105.303 16.392C105.303 18.664 103.735 20.232 101.559 20.232Z" fill="white"/>
<path d="M121.404 25.576C126.588 25.576 130.076 22.184 130.076 17.32V2.60002H123.868V17.032C123.868 18.76 122.844 19.848 121.404 19.848C119.868 19.848 118.844 18.728 118.844 17.032V16.456H112.636V17.32C112.636 22.216 116.252 25.576 121.404 25.576Z" fill="white"/>
<path d="M142.372 25.576C148.004 25.576 152.068 21.704 152.068 16.36C152.068 11.016 148.004 7.17602 142.372 7.17602C136.74 7.17602 132.708 11.016 132.708 16.36C132.708 21.704 136.74 25.576 142.372 25.576ZM142.372 20.232C140.228 20.232 138.66 18.664 138.66 16.392C138.66 14.088 140.228 12.52 142.372 12.52C144.548 12.52 146.116 14.12 146.116 16.392C146.116 18.664 144.548 20.232 142.372 20.232Z" fill="white"/>
<path d="M165.001 7.20802C163.401 7.20802 161.961 7.62402 160.713 8.39202V1.48002H154.825V25H159.241L159.785 23.72C161.193 24.904 162.985 25.576 165.001 25.576C170.313 25.576 174.089 21.768 174.089 16.392C174.089 11.016 170.313 7.20802 165.001 7.20802ZM164.201 20.296C161.993 20.296 160.329 18.632 160.329 16.392C160.329 14.12 161.993 12.456 164.201 12.456C166.441 12.456 168.073 14.12 168.073 16.392C168.073 18.632 166.409 20.296 164.201 20.296Z" fill="white"/>
<path d="M183.45 25.576C188.058 25.576 191.098 23.208 191.098 19.592C191.098 15.24 187.482 14.664 184.73 14.184C183.098 13.896 181.786 13.64 181.786 12.68C181.786 11.88 182.426 11.4 183.386 11.4C184.442 11.4 185.178 11.912 185.178 13H190.778C190.714 9.51202 187.834 7.17602 183.45 7.17602C179.034 7.17602 176.058 9.41602 176.058 12.872C176.058 17.064 179.61 17.864 182.298 18.312C183.962 18.568 185.274 18.856 185.274 19.848C185.274 20.744 184.442 21.192 183.578 21.192C182.458 21.192 181.562 20.616 181.562 19.336H175.834C175.898 23.08 178.746 25.576 183.45 25.576Z" fill="white"/>
</svg>
