<svg width="32" height="32" viewBox="0 0 32 32" fill="none" xmlns="http://www.w3.org/2000/svg">
  <rect width="32" height="32" rx="7" fill="#2563eb"/>
  <path transform="translate(3.136, 2.184)"
    d="M12.4482 13.032V16.936H18.0162C17.3122 18.664 15.2962 19.816 12.9282 19.816C9.53619 19.816 7.32819 17.384 7.32819 13.832C7.32819 10.248 9.56819 7.81602 12.9282 7.81602C15.2002 7.81602 17.2162 9.03202 18.0162 10.92H24.5122C23.5522 5.73602 18.7522 2.05602 12.8642 2.05602C5.98419 2.05602 0.992188 7.01602 0.992188 13.832C0.992188 20.648 6.08019 25.576 12.9282 25.576C19.9362 25.576 24.7362 20.36 24.7362 13.032H12.4482Z"
    fill="white"/>
</svg>
